<svg width="67" height="16" viewBox="0 0 67 16" fill="none" xmlns="http://www.w3.org/2000/svg">
<g clip-path="url(#clip0_17566_33401)">
<path d="M65.5739 14.9327C65.6145 14.9331 65.6547 14.9257 65.6921 14.911C65.7294 14.8963 65.7632 14.8747 65.7911 14.8473C65.8191 14.82 65.8408 14.7876 65.8548 14.7522C65.8688 14.7168 65.8748 14.679 65.8724 14.6413C65.8724 14.4347 65.7385 14.3359 65.4636 14.3359H65.0195V15.4179H65.1866V14.9463H65.3918L65.3965 14.952L65.715 15.4179H65.8937L65.551 14.9357L65.5739 14.9327ZM65.3807 14.8243H65.187V14.4586H65.4325C65.5594 14.4586 65.7039 14.4778 65.7039 14.6324C65.7039 14.8101 65.5576 14.8243 65.3797 14.8243" fill="#0A66C2"/>
<path d="M0.5 3.10205H2.96552V11.4601H7.52994V13.5777H0.5V3.10205Z" fill="#0A66C2"/>
<path d="M8.61966 6.47502H10.9882V13.5739H8.61966V6.47502ZM9.80395 2.9458C10.0757 2.94585 10.3413 3.02088 10.5672 3.16142C10.7932 3.30196 10.9692 3.50168 11.0732 3.73535C11.1771 3.96901 11.2043 4.22612 11.1513 4.47415C11.0982 4.72219 10.9674 4.95002 10.7752 5.12883C10.583 5.30764 10.3382 5.42941 10.0717 5.47873C9.80514 5.52805 9.52888 5.50271 9.27783 5.40592C9.02677 5.30913 8.8122 5.14523 8.66123 4.93495C8.51027 4.72466 8.42969 4.47744 8.42969 4.22454C8.42969 4.0566 8.46524 3.89029 8.5343 3.73514C8.60337 3.57998 8.7046 3.439 8.83221 3.32025C8.95983 3.20151 9.11133 3.10732 9.27806 3.04307C9.44479 2.97882 9.62349 2.94577 9.80395 2.9458Z" fill="#0A66C2"/>
<path d="M20.8984 3.10059H23.267V9.36111L25.9514 6.47183H28.8553L25.7466 9.75835L28.7899 13.5769H25.813L23.2986 10.0679H23.2675V13.5764H20.8989L20.8984 3.10059Z" fill="#0A66C2"/>
<path d="M12.3008 6.47559H14.5753V7.44572H14.6077C14.8348 7.08347 15.1635 6.78546 15.5585 6.58349C15.9535 6.38153 16.4 6.2832 16.8504 6.29901C19.2523 6.29901 19.6944 7.76971 19.6944 9.68036V13.5733H17.3258V10.1219C17.3258 9.29805 17.3095 8.23905 16.0922 8.23905C14.861 8.23905 14.6711 9.13616 14.6711 10.062V13.5724H12.3025L12.3008 6.47559Z" fill="#0A66C2"/>
<path d="M33.8413 9.19875C33.8458 9.01992 33.8113 8.84209 33.7398 8.67604C33.6683 8.50998 33.5613 8.35916 33.4254 8.23271C33.2894 8.10627 33.1273 8.00682 32.9488 7.9404C32.7703 7.87398 32.5792 7.84197 32.3871 7.84631C31.9732 7.82234 31.5658 7.95069 31.2527 8.20369C30.9396 8.45668 30.7459 8.81405 30.7133 9.19875H33.8413ZM35.8476 12.3445C35.4541 12.7887 34.9592 13.1459 34.399 13.3902C33.8388 13.6344 33.2273 13.7597 32.6086 13.7569C30.2401 13.7569 28.3438 12.2855 28.3438 10.007C28.3438 7.72851 30.2398 6.25781 32.6086 6.25781C34.8225 6.25781 36.2108 7.72737 36.2108 10.007V10.6982H30.7133C30.7817 11.0901 31.0001 11.4459 31.3281 11.6999C31.6562 11.9538 32.0718 12.0889 32.4984 12.0802C32.8355 12.0783 33.1667 11.9979 33.462 11.8464C33.7572 11.6949 34.007 11.477 34.1887 11.2127L35.8476 12.3445Z" fill="#0A66C2"/>
<path d="M41.1482 8.19069C39.9639 8.19069 39.2533 8.92662 39.2533 9.99893C39.2533 11.0712 39.9637 11.8079 41.1482 11.8079C42.3327 11.8079 43.0448 11.0731 43.0448 9.99893C43.0448 8.92478 42.3339 8.19069 41.1482 8.19069ZM45.2253 13.5722H43.0448V12.6308H43.0125C42.7389 12.9732 42.3841 13.2523 41.9756 13.4461C41.5672 13.64 41.1162 13.7435 40.6577 13.7486C38.3819 13.7486 36.8828 12.22 36.8828 10.0584C36.8828 8.07313 38.2094 6.25019 40.3902 6.25019C41.3705 6.25019 42.2861 6.49979 42.8232 7.19163H42.8543V3.09961H45.2251L45.2253 13.5722Z" fill="#0A66C2"/>
<path d="M61.2142 13.5768H58.8456V10.1247C58.8456 9.30154 58.8299 8.24185 57.6138 8.24185C56.3801 8.24185 56.1914 9.13874 56.1914 10.0648V13.5766H53.8228V6.4777H56.0966V7.44783H56.1285C56.356 7.08573 56.6848 6.78786 57.0799 6.58592C57.475 6.38399 57.9215 6.28556 58.3719 6.30112C60.7726 6.30112 61.2152 7.77067 61.2152 9.68247L61.2142 13.5768ZM51.1503 5.50733C50.8784 5.50738 50.6127 5.4324 50.3866 5.29188C50.1605 5.15135 49.9843 4.9516 49.8803 4.71787C49.7762 4.48415 49.7489 4.22695 49.8019 3.9788C49.8549 3.73065 49.9858 3.5027 50.1779 3.32377C50.3701 3.14483 50.615 3.02296 50.8817 2.97356C51.1483 2.92416 51.4246 2.94944 51.6758 3.04622C51.927 3.143 52.1417 3.30692 52.2928 3.51726C52.4438 3.72759 52.5245 3.9749 52.5245 4.2279C52.5246 4.39589 52.4891 4.56224 52.42 4.71745C52.351 4.87266 52.2498 5.0137 52.1221 5.1325C51.9945 5.25131 51.843 5.34556 51.6763 5.40987C51.5095 5.47418 51.3308 5.5073 51.1503 5.50733ZM52.3346 13.5768H49.9635V6.4777H52.3346V13.5768ZM62.395 0.901892H48.7733C48.4642 0.898645 48.1662 1.00977 47.9451 1.21084C47.7239 1.4119 47.5975 1.68647 47.5938 1.97421V14.704C47.5974 14.9919 47.7237 15.2666 47.9448 15.4679C48.166 15.6692 48.464 15.7805 48.7733 15.7774H62.395C62.705 15.7811 63.0038 15.67 63.2258 15.4688C63.4479 15.2675 63.575 14.9924 63.5793 14.704V1.97329C63.5749 1.68498 63.4477 1.4101 63.2256 1.20904C63.0036 1.00797 62.7048 0.897171 62.395 0.900974" fill="#0A66C2"/>
<path d="M65.3999 13.854C65.1117 13.8566 64.8363 13.9653 64.634 14.1563C64.4317 14.3473 64.3189 14.6051 64.3203 14.8733C64.3217 15.1415 64.4372 15.3983 64.6414 15.5875C64.8457 15.7766 65.1222 15.8829 65.4104 15.8829C65.6985 15.8829 65.975 15.7766 66.1793 15.5875C66.3835 15.3983 66.499 15.1415 66.5004 14.8733C66.5018 14.6051 66.389 14.3473 66.1867 14.1563C65.9844 13.9653 65.709 13.8566 65.4208 13.854H65.3999ZM65.3999 15.7667C65.2109 15.7696 65.0251 15.7203 64.8662 15.625C64.7073 15.5298 64.5824 15.3927 64.5071 15.2313C64.4319 15.0699 64.4097 14.8914 64.4435 14.7183C64.4773 14.5452 64.5655 14.3853 64.6969 14.2589C64.8284 14.1324 64.9971 14.0451 65.1819 14.0079C65.3667 13.9707 65.5592 13.9853 65.735 14.0499C65.9108 14.1145 66.0621 14.2262 66.1697 14.3709C66.2774 14.5155 66.3365 14.6866 66.3396 14.8625C66.3396 14.8675 66.3396 14.8724 66.3396 14.8774C66.3449 15.1082 66.2515 15.3314 66.08 15.4981C65.9084 15.6648 65.6727 15.7613 65.4248 15.7663H65.4001" fill="#0A66C2"/>
</g>
<defs>
<clipPath id="clip0_17566_33401">
<rect width="66" height="15" fill="white" transform="translate(0.5 0.900879)"/>
</clipPath>
</defs>
</svg>
