<svg width="63" height="21" viewBox="0 0 63 21" fill="none" xmlns="http://www.w3.org/2000/svg">
<g id="UADE">
<path id="Vector" d="M48.8192 9.76588C48.8149 1.43617 43.9288 0.0485909 37.691 0.00628662L32.3861 0.0126323V0.361643C34.4463 0.528744 34.148 1.40021 34.1692 3.0247V14.3369H34.1946V20.2235L37.691 20.2277C42.7993 20.1939 46.9303 19.2505 48.2882 14.339H48.2946C48.6457 13.0931 48.8192 11.585 48.8192 9.76165V9.76588ZM45.1302 11.6717C45.0816 12.1772 45.0054 12.7314 44.8828 13.2793C44.7453 13.9223 44.3582 15.0878 44.079 15.6377C43.6602 16.4478 43.2181 17.296 42.1964 17.9031C41.1388 18.525 40.3435 18.7873 38.9136 18.7873C38.48 18.7873 38.0887 18.7111 37.8264 18.6286V14.339V1.56097C38.0866 1.47424 38.4335 1.44463 38.8713 1.44463C44.2863 1.44463 45.126 5.44239 45.2148 9.76588C45.2191 10.1043 45.2191 10.8214 45.1324 11.6717H45.1302Z" fill="#f3f3f3"/>
<path id="Vector_2" d="M57.4429 18.4954C55.2875 18.4954 55.0273 17.6345 55.0273 15.9825L54.9765 9.81243H60.4634V9.74051H60.4719V8.62156C60.4719 8.62156 60.4676 8.62156 60.4634 8.61733V8.16891H54.9914L54.9765 8.16467V3.36314C54.9787 1.83173 55.1267 1.51233 56.8083 1.51233H62.1915L62.1979 0.00418091H49.5785V0.357422C51.6387 0.524523 51.3405 1.39599 51.3638 3.02259V20.2193H62.1979V18.4954H57.4408H57.4429Z" fill="#f3f3f3"/>
<path id="Vector_3" d="M24.8475 0.00628662H20.6953V0.359527C22.1252 0.48221 22.3938 1.1062 22.2373 1.91632C22.2098 2.13842 21.9856 2.78145 21.7445 3.42236C21.4441 4.23037 15.4729 20.2235 15.4729 20.2235H17.7636L21.0317 11.2571H25.903L29.1223 20.2235H32.494L24.8475 0.00628662ZM21.3743 9.82088L23.369 4.30652L25.4398 9.82088H21.3743Z" fill="#f3f3f3"/>
<path id="Vector_4" d="M14.9778 14.2375V0H12.539L12.5432 14.2375C12.5432 14.2375 12.5453 14.6965 12.5136 15.202C12.4607 15.9762 12.3571 16.9915 11.7225 17.7424C11.236 18.3178 10.4851 18.5716 9.93304 18.6668C9.40212 18.7641 8.37836 18.7196 7.98282 18.6477C7.40959 18.5441 6.71157 18.2945 6.19969 17.679C5.56513 16.9259 5.42129 15.8387 5.3811 15.0836C5.35784 14.5759 5.37476 14.2142 5.37476 14.2142H5.37264V0.00634564H5.30072L0 0.0105761V0.361702C2.05599 0.528803 1.75563 1.40027 1.78101 3.02476V14.2142C1.78101 14.2142 1.78524 14.6521 1.86139 15.2528C2.06656 16.8984 2.86188 20.1728 8.90505 20.1982C10.9018 20.1559 12.5136 19.7476 13.4231 18.8275C15.0032 17.4717 14.9799 14.2375 14.9799 14.2375H14.9778Z" fill="#f3f3f3"/>
</g>
</svg>
